<?xml version="1.0" encoding="UTF-8" standalone="no"?>
<!DOCTYPE svg PUBLIC "-//W3C//DTD SVG 1.1//EN" "http://www.w3.org/Graphics/SVG/1.1/DTD/svg11.dtd">
<svg width="100%" height="100%" viewBox="0 0 512 512" version="1.1" xmlns="http://www.w3.org/2000/svg" xmlns:xlink="http://www.w3.org/1999/xlink" xml:space="preserve" xmlns:serif="http://www.serif.com/" style="fill-rule:evenodd;clip-rule:evenodd;stroke-linejoin:round;stroke-miterlimit:2;">
    <path d="M512,102.4C512,45.884 466.116,0 409.6,0L102.4,0C45.884,0 0,45.884 0,102.4L0,409.6C0,466.116 45.884,512 102.4,512L409.6,512C466.116,512 512,466.116 512,409.6L512,102.4Z" style="fill:rgb(255,235,59);"/>
    <g id="gallery-thumbnails-solid.svg" transform="matrix(0.66693,0,0,0.66693,256,256)">
        <g transform="matrix(1,0,0,1,-288,-256)">
            <path d="M512,64L512,288L64,288L64,64L512,64ZM64,0C28.7,0 0,28.7 0,64L0,288C0,323.3 28.7,352 64,352L512,352C547.3,352 576,323.3 576,288L576,64C576,28.7 547.3,0 512,0L64,0ZM0,448L0,480C0,497.7 14.3,512 32,512L64,512C81.7,512 96,497.7 96,480L96,448C96,430.3 81.7,416 64,416L32,416C14.3,416 0,430.3 0,448ZM192,416C174.3,416 160,430.3 160,448L160,480C160,497.7 174.3,512 192,512L224,512C241.7,512 256,497.7 256,480L256,448C256,430.3 241.7,416 224,416L192,416ZM320,448L320,480C320,497.7 334.3,512 352,512L384,512C401.7,512 416,497.7 416,480L416,448C416,430.3 401.7,416 384,416L352,416C334.3,416 320,430.3 320,448ZM512,416C494.3,416 480,430.3 480,448L480,480C480,497.7 494.3,512 512,512L544,512C561.7,512 576,497.7 576,480L576,448C576,430.3 561.7,416 544,416L512,416Z" style="fill:rgb(33,33,33);fill-rule:nonzero;"/>
        </g>
    </g>
</svg>
